<svg xmlns="http://www.w3.org/2000/svg" xmlns:xlink="http://www.w3.org/1999/xlink" width="1024" height="1024"><defs><linearGradient id="b" x1="0" x2="0" y1="0" y2="1"><stop offset="0" stop-color="#ffde35"/><stop offset="1" stop-color="#ffaa2a"/></linearGradient><linearGradient id="a" x1="0" x2="1" y1="0" y2="1"><stop offset="0%" stop-color="#00F5D4"/><stop offset="100%" stop-color="#00C2FF"/></linearGradient><linearGradient xlink:href="#a" id="d" x1="-294.8" x2="381.2" y1="-319.5" y2="356.5" gradientTransform="translate(9 -8)" gradientUnits="userSpaceOnUse"/><linearGradient xlink:href="#a" id="f" x1="-122.4" x2="58.4" y1="-180.4" y2=".4" gradientUnits="userSpaceOnUse"/><linearGradient xlink:href="#a" id="g" x1="27.6" x2="208.4" y1="-180.4" y2=".4" gradientUnits="userSpaceOnUse"/><linearGradient xlink:href="#a" id="h" x1="-122.4" x2="58.4" y1="-40.4" y2="140.4" gradientUnits="userSpaceOnUse"/><linearGradient xlink:href="#a" id="i" x1="27.6" x2="208.4" y1="-40.4" y2="140.4" gradientUnits="userSpaceOnUse"/><linearGradient xlink:href="#a" id="j" x1="-122.4" x2="58.4" y1="99.6" y2="280.4" gradientUnits="userSpaceOnUse"/><linearGradient xlink:href="#a" id="k" x1="27.6" x2="208.4" y1="99.6" y2="280.4" gradientUnits="userSpaceOnUse"/><linearGradient xlink:href="#b" id="n" x1="280.6" x2="353.5" y1="459.5" y2="683.9" gradientTransform="matrix(1.2 0 0 1.2 -23 -168)" gradientUnits="userSpaceOnUse"/><filter id="c" width="1.1" height="1.1" x="-.1" y="-.1"><feOffset dy="12" in="SourceAlpha" result="o"/><feGaussianBlur in="o" result="b" stdDeviation="24"/><feColorMatrix in="b" result="s" values="0 0 0 0 0 0 0 0 0 0 0 0 0 0 0 0 0 0 0.4 0"/><feBlend in="SourceGraphic" in2="s"/></filter><filter id="m" width="1.2" height="1.1" x="-.1" y="-.1"><feGaussianBlur result="b1" stdDeviation="14"/><feMerge><feMergeNode in="b1"/><feMergeNode in="SourceGraphic"/></feMerge></filter><filter id="e" width="1.7" height="1.7" x="-.4" y="-.4"><feGaussianBlur result="b2" stdDeviation="16"/><feMerge><feMergeNode in="b2"/><feMergeNode in="SourceGraphic"/></feMerge></filter><filter id="l" width="1.2" height="1.1" x="-.1" y="-.1"><feGaussianBlur result="b1" stdDeviation="14"/><feMerge><feMergeNode in="b1"/><feMergeNode in="SourceGraphic"/></feMerge></filter></defs><rect width="880" height="880" x="72" y="72" fill="#111417" filter="url(#c)" rx="200"/><g transform="matrix(1 -.4 .4 1 508 456)"><rect width="360" height="420" x="-130.8" y="-198" fill="none" stroke="url(#d)" stroke-width="36" filter="url(#e)" rx="70" transform="matrix(1 0 0 1.2 -6 43)"/><g fill="#0a0d10"><rect width="120" height="120" x="-92" y="-150" rx="28"/><rect width="120" height="120" x="58" y="-150" rx="28"/><rect width="120" height="120" x="-92" y="-10" rx="28"/><rect width="120" height="120" x="58" y="-10" rx="28"/><rect width="120" height="120" x="-92" y="130" rx="28"/><rect width="120" height="120" x="58" y="130" rx="28"/></g><rect width="104" height="104" x="-84" y="-142" fill="url(#f)" filter="url(#e)" rx="26"/><rect width="104" height="104" x="66" y="-142" fill="url(#g)" filter="url(#e)" rx="26"/><rect width="104" height="104" x="-84" y="-2" fill="url(#h)" filter="url(#e)" rx="26"/><rect width="104" height="104" x="66" y="-2" fill="url(#i)" filter="url(#e)" rx="26"/><rect width="104" height="104" x="-84" y="138" fill="url(#j)" filter="url(#e)" rx="26"/><rect width="104" height="104" x="66" y="138" fill="url(#k)" filter="url(#e)" rx="26"/></g><path fill="#111417" d="M295 213a149 149 0 0 0-62 283l-32 275-2 19a49 49 0 1 0 98 7l1-7 55 7a35 35 0 0 0 37-35l1-15a35 35 0 0 0-34-35l-50-5 1-4h15c10-2 19-10 23-20 2-4 3-9 3-14l2-18c0-12-8-23-19-29-4-2-9-3-15-3l13-112a149 149 0 0 0-35-294z" filter="url(#l)"/><g filter="url(#m)" transform="translate(10 -5)"><path fill="url(#n)" d="m259 720 88 10c13 1 22 13 20 25l-1 14c-2 13-13 22-26 21l-88-10c-13-2-22-13-20-26l1-14c2-13 13-22 26-20zm15-253c21 2 35 20 33 41l-34 295a37 37 0 1 1-74-9l34-295c3-20 21-35 41-32zm-7 165 41 5c12 1 20 11 19 23l-2 18c-2 12-12 20-23 18l-42-4c-11-2-20-12-18-23l2-19c1-11 11-20 23-18zm154-249a137 137 0 0 1-151 121 137 137 0 0 1-121-152 137 137 0 0 1 152-121 137 137 0 0 1 120 152Z"/><circle cx="290.6" cy="363.3" r="62.7" fill="#111417"/></g></svg>